<svg width="512" height="512" xmlns="http://www.w3.org/2000/svg" xml:space="preserve" version="1.1">

 <g>
    <path id="svg_2" fill="#7c3aed"
          d="m485.41,417.00201l-133.65399,-213.46901c-12.16602,-19.439 -18.61099,-41.90399 -18.61099,-64.82599l0.17099,-138.70702l-23.65399,0l-0.16,138.293l0,0.414c0,27.35899 7.70801,54.166 22.22198,77.36301l133.65302,213.47998c3.896,6.22202 5.86099,13.293 5.86099,20.384c0,6.41199 -1.604,12.82599 -4.82098,18.642c-6.77301,12.20999 -19.651,19.79001 -33.60101,19.79001l-0.21301,0l-353.46098,-0.38199c-13.983,-0.01001 -26.85,-7.62302 -33.60201,-19.854c-3.196,-5.81702 -4.778,-12.18802 -4.778,-18.57901c0,-7.11301 1.965,-14.20499 5.893,-20.436l134.11,-213.215c14.60899,-23.20799 22.35899,-50.04799 22.39099,-77.48099l0.14799,-138.41901l-23.61101,0l-0.17,138.399c-0.03299,22.974 -6.53,45.481 -18.75999,64.931l-134.111,213.20399c-6.338,10.065 -9.534,21.53101 -9.522,33.01801c-0.011,10.298 2.558,20.63901 7.718,29.98199c10.904,19.79001 31.701,32.06201 54.273,32.08301l353.62,0.383l0.01001,-11.81601l0,11.81601l0.85001,-0.03101l0,-0.03299c22.24197,-0.276 42.668,-12.422 53.48599,-31.90201c5.19101,-9.37399 7.78198,-19.758 7.78198,-30.099c0.00101,-11.44501 -3.17398,-22.879 -9.45898,-32.93298z"/>
     <rect id="svg_4" fill="#7c3aed" height="16.307" width="48.922" y="43.89" x="214.016"/>
     <rect id="svg_5" fill="#7c3aed" height="16.307" width="48.922" y="98.703" x="214.016"/>
     <rect id="svg_6" fill="#7c3aed" height="16.307" width="48.922" y="153.506" x="214.016"/>
     <g stroke="null">
   <path stroke="null" fill="#7c3aed"
         d="m391.5,348.78711l0,-29.78711l-196.11716,0l0,9.80646l-82.88284,0c0,0 12.49078,49.76773 78.5636,49.76773c35.37114,0 40.15732,15.56778 40.15732,23.41293c0,10.29675 -5.95355,26.84515 -42.84225,40.20642l0,28.80646l45.17699,0c7.93808,-6.37421 17.86067,-10.05164 28.60042,-10.05164s20.66238,3.80002 28.60043,10.05164l45.87738,0c0,0 0,-18.50967 0,-28.07095c-27.31631,-9.43872 -45.177,-25.00644 -45.177,-42.65805c0,-27.82584 44.1264,-50.01294 100.04312,-51.48389zm-196.11716,-5.271c-60.70293,0 -60.70293,-4.9032 -60.70293,-4.9032l60.70293,0c0,0 0,2.94196 0,4.9032zm9.33891,-9.80643l0,-4.90323l177.43932,0l0,4.90323l-177.43932,0z"/>
  </g>
 </g>
</svg>